<?xml version="1.0" encoding="UTF-8" standalone="no"?>
<!-- Created with Inkscape (http://www.inkscape.org/) -->

<svg
   xmlns:dc="http://purl.org/dc/elements/1.1/"
   xmlns:cc="http://creativecommons.org/ns#"
   xmlns:rdf="http://www.w3.org/1999/02/22-rdf-syntax-ns#"
   xmlns:svg="http://www.w3.org/2000/svg"
   xmlns="http://www.w3.org/2000/svg"
   xmlns:sodipodi="http://sodipodi.sourceforge.net/DTD/sodipodi-0.dtd"
   xmlns:inkscape="http://www.inkscape.org/namespaces/inkscape"
   width="1066.35"
   height="520"
   id="svg4296"
   version="1.1"
   inkscape:version="0.48.1 "
   sodipodi:docname="Neues Dokument 3">
  <defs
     id="defs4298" />
  <sodipodi:namedview
     id="base"
     pagecolor="#ffffff"
     bordercolor="#666666"
     borderopacity="1.0"
     inkscape:pageopacity="0.0"
     inkscape:pageshadow="2"
     inkscape:zoom="1.4813455"
     inkscape:cx="533.17498"
     inkscape:cy="259.99999"
     inkscape:document-units="px"
     inkscape:current-layer="layer1"
     showgrid="false"
     fit-margin-top="0"
     fit-margin-left="0"
     fit-margin-right="0"
     fit-margin-bottom="0"
     inkscape:window-width="1680"
     inkscape:window-height="990"
     inkscape:window-x="-4"
     inkscape:window-y="-4"
     inkscape:window-maximized="1" />
  <metadata
     id="metadata4301">
    <rdf:RDF>
      <cc:Work
         rdf:about="">
        <dc:format>image/svg+xml</dc:format>
        <dc:type
           rdf:resource="http://purl.org/dc/dcmitype/StillImage" />
        <dc:title></dc:title>
      </cc:Work>
    </rdf:RDF>
  </metadata>
  <g
     inkscape:label="Ebene 1"
     inkscape:groupmode="layer"
     id="layer1"
     transform="translate(-82.694059,37.274231)">
    <g
       id="g1016"
       transform="matrix(0,20.644096,20.644096,0,401.16011,55.405375)">
      <path
         inkscape:connector-curvature="0"
         d="m 0,0 c -0.033,0.898 -0.46,1.577 -1.303,1.577 -0.81,0 -1.194,-0.657 -1.194,-1.697 l 0,-1.008 2.53,0 L 0,0 z m 3.493,-1.128 0,-0.93 -6.844,0 c 0,0 0,2.036 0,2.047 0,1.654 0.788,2.519 2.003,2.519 1.031,0 1.665,-0.603 1.972,-1.544 l 2.869,1.85 0,-1.105 -2.716,-1.665 0.077,-1.172 2.639,0"
         style="fill:#231f20;fill-opacity:1;fill-rule:nonzero;stroke:none"
         id="path1018" />
    </g>
    <g
       id="g1020"
       transform="matrix(0,20.644096,20.644096,0,526.65557,66.078372)">
      <path
         inkscape:connector-curvature="0"
         d="m 0,0 -0.074,0 c -0.718,0 -1.193,-0.328 -1.193,-1.065 0,-0.799 0.655,-1.269 1.288,-1.34 L 0,0 z m 0.697,-2.446 c 0.95,0.03 1.626,0.644 1.626,1.544 0,0.492 -0.138,1.024 -0.402,1.403 l 0.803,0.153 c 0.264,-0.419 0.401,-0.982 0.401,-1.575 0,-1.413 -1.046,-2.375 -2.523,-2.375 -1.563,0 -2.629,1.003 -2.629,2.313 0,1.136 0.739,1.791 1.89,1.791 0.264,0 0.559,-0.041 0.771,-0.103 0,-0.009 0.02,-3.151 0.02,-3.151 l 0.043,0"
         style="fill:#231f20;fill-opacity:1;fill-rule:nonzero;stroke:none"
         id="path1022" />
    </g>
    <g
       id="g1024"
       transform="matrix(0,20.644096,20.644096,0,611.81246,77.639066)">
      <path
         inkscape:connector-curvature="0"
         d="m 0,0 c 0.19,-1.392 0.485,-1.903 1.076,-1.903 0.433,0 0.75,0.317 0.75,0.828 0,0.431 -0.221,0.81 -0.517,1.075 L 0,0 z m 1.889,-0.01 c 0.433,-0.358 0.676,-0.788 0.676,-1.289 0,-0.88 -0.602,-1.494 -1.383,-1.494 -0.866,0 -1.626,0.603 -1.731,2.793 l -0.138,0 c -0.781,0 -1.098,-0.296 -1.098,-1.054 0,-0.481 0.232,-1.074 0.539,-1.515 l -0.782,-0.163 c -0.295,0.409 -0.559,1.095 -0.559,1.761 0,1.268 0.559,1.832 1.879,1.811 l 2.027,0 c 0.401,0 0.475,0.051 0.475,0.46 L 2.523,1.249 C 2.586,0.491 2.311,0.154 1.889,0.031 l 0,-0.041"
         style="fill:#231f20;fill-opacity:1;fill-rule:nonzero;stroke:none"
         id="path1026" />
    </g>
    <g
       id="g1028"
       transform="matrix(0,20.644096,20.644096,0,812.18406,66.078372)">
      <path
         inkscape:connector-curvature="0"
         d="m 0,0 -0.074,0 c -0.718,0 -1.193,-0.328 -1.193,-1.065 0,-0.798 0.655,-1.268 1.288,-1.34 L 0,0 z m 0.697,-2.445 c 0.95,0.03 1.626,0.644 1.626,1.544 0,0.491 -0.138,1.023 -0.402,1.402 l 0.803,0.154 c 0.264,-0.419 0.401,-0.983 0.401,-1.576 0,-1.412 -1.046,-2.374 -2.523,-2.374 -1.563,0 -2.629,1.003 -2.629,2.313 0,1.135 0.739,1.79 1.89,1.79 0.264,0 0.559,-0.04 0.771,-0.101 0,-0.011 0.02,-3.152 0.02,-3.152 l 0.043,0"
         style="fill:#231f20;fill-opacity:1;fill-rule:nonzero;stroke:none"
         id="path1030" />
    </g>
    <g
       id="g1032"
       transform="matrix(0,20.644096,20.644096,0,861.91568,127.3294)">
      <path
         inkscape:connector-curvature="0"
         d="m 0,0 0,-0.84 -4.856,0 -0.138,0.84 0.856,0 c -0.539,0.327 -0.856,0.717 -0.856,1.311 0,0.315 0.085,0.633 0.243,0.88 L -3.938,1.975 C -4.097,1.718 -4.16,1.463 -4.16,1.227 -4.16,0.778 -3.821,0.348 -3.157,0 L 0,0"
         style="fill:#231f20;fill-opacity:1;fill-rule:nonzero;stroke:none"
         id="path1034" />
    </g>
    <g
       id="g1036"
       transform="matrix(0,20.644096,20.644096,0,947.91899,130.79761)">
      <path
         inkscape:connector-curvature="0"
         d="m 0,0 c 0,-0.573 -0.18,-1.208 -0.454,-1.637 l -0.792,0.214 c 0.275,0.39 0.454,0.963 0.454,1.444 0,0.532 -0.253,0.932 -0.686,0.932 -0.486,0 -0.644,-0.554 -0.802,-1.107 -0.19,-0.665 -0.528,-1.391 -1.415,-1.391 -0.897,0 -1.467,0.737 -1.467,1.678 0,0.542 0.137,1.086 0.359,1.515 L -4.012,1.433 C -4.234,1.045 -4.371,0.482 -4.371,0.092 c 0,-0.5 0.212,-0.829 0.602,-0.829 0.464,0 0.623,0.503 0.782,1.084 0.19,0.687 0.527,1.424 1.446,1.424 C -0.623,1.771 0,1.024 0,0"
         style="fill:#231f20;fill-opacity:1;fill-rule:nonzero;stroke:none"
         id="path1038" />
    </g>
    <g
       id="g1040"
       transform="matrix(0,20.644096,20.644096,0,516.31288,269.77366)">
      <path
         inkscape:connector-curvature="0"
         d="m 0,0 c 0,1.326 -0.95,2.165 -2.363,2.165 -1.326,0 -2.275,-0.773 -2.275,-2.319 0,-1.326 0.972,-2.209 2.385,-2.209 C -0.905,-2.363 0,-1.458 0,0 z m 6.473,-3.225 c 1.082,0 1.878,1.281 1.878,3.204 0,1.899 -0.818,3.401 -2.055,3.401 -1.104,0 -1.369,-0.994 -1.369,-3.026 0,-0.641 -0.045,-1.392 -0.089,-1.834 0.287,-1.016 0.883,-1.745 1.635,-1.745 z m -3.667,-0.95 c -0.84,0 -1.612,0.663 -1.967,1.679 -0.618,-1.06 -1.722,-1.679 -3.114,-1.679 -1.988,0 -3.822,1.48 -3.822,4.109 0,1.083 0.287,1.966 0.575,2.606 l -0.244,2.608 1.79,0.066 -0.353,-1.944 c 0.375,0.397 1.325,0.685 2.076,0.685 2.032,0 3.711,-1.68 3.711,-4.043 0,-0.508 -0.066,-0.818 -0.243,-1.414 0.155,-0.419 0.552,-0.994 1.06,-0.994 0.597,0 0.95,0.398 0.95,2.297 0,0 0,1.149 0,0.928 0,3.027 0.928,4.419 2.718,4.419 2.23,0 3.888,-2.409 3.888,-5.457 0,-2.673 -1.149,-4.705 -2.962,-4.705 -1.148,0 -2.098,0.773 -2.363,2.165 -0.375,-0.862 -0.994,-1.326 -1.7,-1.326"
         style="fill:#231f20;fill-opacity:1;fill-rule:nonzero;stroke:none"
         id="path1042" />
    </g>
    <g
       id="g1044"
       transform="matrix(0,20.644096,20.644096,0,776.63492,231.47887)">
      <path
         inkscape:connector-curvature="0"
         d="m 0,0 -0.155,0 c -1.502,0 -2.496,-0.706 -2.496,-2.298 0,-1.723 1.37,-2.739 2.696,-2.893 L 0,0 z m 1.459,-5.279 c 1.987,0.066 3.401,1.391 3.401,3.335 0,1.06 -0.287,2.21 -0.839,3.027 l 1.678,0.331 c 0.552,-0.905 0.84,-2.12 0.84,-3.402 0,-3.049 -2.188,-5.125 -5.28,-5.125 -3.269,0 -5.5,2.165 -5.5,4.993 0,2.451 1.546,3.864 3.954,3.864 0.552,0 1.171,-0.087 1.612,-0.219 0,-0.022 0.045,-6.804 0.045,-6.804 l 0.089,0"
         style="fill:#231f20;fill-opacity:1;fill-rule:nonzero;stroke:none"
         id="path1046" />
    </g>
    <g
       id="g1048"
       transform="matrix(0,20.644096,20.644096,0,909.31453,366.92478)">
      <path
         inkscape:connector-curvature="0"
         d="m 0,0 c 0,-1.238 -0.376,-2.608 -0.95,-3.536 l -1.657,0.465 c 0.575,0.839 0.95,2.076 0.95,3.114 0,1.149 -0.531,2.01 -1.436,2.01 -1.016,0 -1.347,-1.193 -1.679,-2.385 -0.397,-1.436 -1.104,-3.004 -2.96,-3.004 -1.877,0 -3.07,1.59 -3.07,3.623 0,1.17 0.287,2.34 0.751,3.27 l 1.657,-0.465 c -0.464,-0.84 -0.752,-2.055 -0.752,-2.894 0,-1.082 0.443,-1.789 1.26,-1.789 0.972,0 1.302,1.082 1.635,2.341 0.397,1.48 1.104,3.071 3.026,3.071 C -1.304,3.821 0,2.208 0,0"
         style="fill:#231f20;fill-opacity:1;fill-rule:nonzero;stroke:none"
         id="path1050" />
    </g>
    <g
       id="g1052"
       transform="matrix(0,20.644096,20.644096,0,1092.3245,366.47061)">
      <path
         inkscape:connector-curvature="0"
         d="m 0,0 c 0,-1.966 -0.95,-3.029 -3.159,-3.025 l -5.655,-0.003 -0.11,-1.683 -1.149,0.035 -0.508,1.664 -2.187,-0.016 0,1.744 2.319,-0.002 0,3.159 1.635,-0.021 0,-3.159 5.722,0.005 c 0.95,0.006 1.435,0.461 1.435,1.366 0,0.62 -0.154,1.233 -0.375,1.824 0,0.022 1.59,0.375 1.59,0.375 C -0.155,1.52 0,0.751 0,0"
         style="fill:#231f20;fill-opacity:1;fill-rule:nonzero;stroke:none"
         id="path1054" />
    </g>
    <g
       id="g1056"
       transform="matrix(0,20.644096,20.644096,0,914.26911,29.063508)">
      <path
         inkscape:connector-curvature="0"
         d="m 0,0 -2.729,0 0,1.804 L 0,0"
         style="fill:#ed1c24;fill-opacity:1;fill-rule:nonzero;stroke:none"
         id="path1058" />
    </g>
    <g
       id="g1060"
       transform="matrix(0,20.644096,20.644096,0,713.7943,104.4351)">
      <path
         inkscape:connector-curvature="0"
         d="m 0,0 c 0.286,-0.317 0.465,-0.696 0.465,-1.136 0,-0.87 -0.707,-1.392 -1.774,-1.392 -0.992,0 -1.794,0.533 -1.794,1.485 0,0.409 0.116,0.766 0.348,1.043 0,0 2.808,0 2.755,0 z m -3.726,0 c -0.095,-0.296 -0.159,-0.676 -0.159,-1.013 0,-1.402 1.13,-2.385 2.597,-2.385 1.458,0 2.555,0.767 2.555,2.087 0,0.554 -0.274,0.974 -0.601,1.311 0.053,0 0.443,0 0.443,0 l 0,0.84 -7.47,0 0,-0.84 2.635,0"
         style="fill:#231f20;fill-opacity:1;fill-rule:nonzero;stroke:none"
         id="path1062" />
    </g>
    <path
       inkscape:connector-curvature="0"
       d="m 359.33517,150.76045 0,208.87696 37.39472,0 0,-208.87696 -37.39472,0 z"
       style="fill:#231f20;fill-opacity:1;fill-rule:nonzero;stroke:none"
       id="path1064" />
    <g
       id="g1066"
       transform="matrix(0,20.644096,20.644096,0,178.43096,323.59282)">
      <path
         inkscape:connector-curvature="0"
         d="m 0,0 0,-1.099 1.626,-1.175 -11.942,-10e-4 0,2.187 c 0,3.49 1.79,5.522 5.192,5.522 C -1.745,5.434 0,3.292 0,0 z m -12.06,0 c 0,-1.104 0,-4.153 0,-4.153 l 13.806,0 c 0,0 0,2.961 0,4.065 0,4.749 -2.74,7.4 -7.003,7.4 -4.109,0 -6.803,-2.739 -6.803,-7.312"
         style="fill:#231f20;fill-opacity:1;fill-rule:nonzero;stroke:none"
         id="path1068" />
    </g>
  </g>
</svg>
