<?xml version="1.0" encoding="UTF-8" standalone="no"?>
<svg
   xmlns:dc="http://purl.org/dc/elements/1.1/"
   xmlns:cc="http://creativecommons.org/ns#"
   xmlns:rdf="http://www.w3.org/1999/02/22-rdf-syntax-ns#"
   xmlns:svg="http://www.w3.org/2000/svg"
   xmlns="http://www.w3.org/2000/svg"
   viewBox="0 0 517.73334 151.88"
   height="151.88"
   width="517.73334"
   xml:space="preserve"
   id="svg2"
   version="1.1"><metadata
     id="metadata8"><rdf:RDF><cc:Work
         rdf:about=""><dc:format>image/svg+xml</dc:format><dc:type
           rdf:resource="http://purl.org/dc/dcmitype/StillImage" /></cc:Work></rdf:RDF></metadata><defs
     id="defs6" /><g
     transform="matrix(1.3333333,0,0,-1.3333333,0,151.88)"
     id="g10"><g
       transform="scale(0.1)"
       id="g12"><path
         id="path14"
         style="fill:#154281;fill-opacity:1;fill-rule:nonzero;stroke:none"
         d="M 562.781,738.895 C 628.355,723.867 710.313,697.91 763.586,655.574 825.055,605.027 861.934,531.27 861.934,452.031 861.934,348.223 811.402,252.605 728.066,191.152 639.277,124.219 534.102,98.2617 423.453,98.2617 334.668,98.2617 243.145,113.27 162.551,150.164 94.2461,182.949 0,256.707 0,338.672 c 0,38.25 27.3203,75.125 66.9336,75.125 36.8794,0 57.3674,-21.856 76.4964,-50.547 28.679,-43.711 47.804,-77.859 92.886,-107.918 50.543,-32.773 114.739,-49.18 174.844,-49.18 94.254,0 210.367,49.18 210.367,158.465 0,47.813 -24.589,86.067 -68.308,106.543 -43.707,21.856 -125.664,39.629 -174.844,49.18 -69.664,12.297 -162.551,36.875 -221.289,76.484 -73.7618,50.559 -120.2071,128.418 -120.2071,218.574 0,96.989 53.2734,189.872 131.1411,247.242 77.859,57.38 178.937,76.5 274.558,76.5 101.09,0 211.731,-24.6 301.891,-71.03 16.386,-9.57 31.414,-20.5 36.879,-39.63 9.558,-32.777 9.558,-88.789 9.558,-122.937 0,-32.785 -16.394,-55.988 -50.539,-55.988 -73.769,0 -62.832,193.945 -286.859,193.945 -77.863,0 -170.75,-43.699 -170.75,-132.484 0,-98.36 94.254,-125.668 172.109,-144.797 l 107.914,-27.324" /><path
         id="path16"
         style="fill:#154281;fill-opacity:1;fill-rule:nonzero;stroke:none"
         d="m 1193.85,495.762 c 122.94,5.449 256.81,19.129 367.45,73.758 109.28,53.281 202.17,147.519 202.17,277.285 0,101.09 -54.64,178.945 -142.07,224.035 -80.59,40.98 -172.11,47.8 -259.53,47.8 H 939.785 c -30.055,0 -66.941,-9.55 -66.941,-46.43 0,-24.6 15.023,-32.78 32.785,-43.73 l 15.023,-8.18 c 30.055,-15.03 24.59,-46.452 24.59,-75.136 V 292.215 c 0,-28.68 5.465,-60.086 -24.59,-75.117 l -15.023,-8.203 c -17.762,-10.918 -32.785,-19.122 -32.785,-43.7 0,-36.906 36.886,-46.457 66.941,-46.457 h 255.435 c 31.42,0 92.88,-4.097 92.88,42.356 0,25.957 -10.93,35.508 -34.14,45.058 -21.87,8.203 -42.35,13.672 -51.9,38.25 -4.11,12.305 -6.84,28.703 -8.21,45.09 z m 0,423.453 c 0,28.68 -1.36,60.105 20.49,80.586 20.49,20.499 58.74,23.229 86.07,23.229 113.37,0 196.69,-66.936 196.69,-184.421 0,-161.179 -172.11,-219.91 -303.25,-237.683 v 318.289" /><path
         id="path18"
         style="fill:#154281;fill-opacity:1;fill-rule:nonzero;stroke:none"
         d="m 1770.28,118.738 c 34.15,0 105.18,-6.828 105.18,43.711 0,50.547 -71.03,36.875 -71.03,96.985 0,43.711 38.24,135.242 51.91,183.046 h 382.46 l 6.83,-21.855 c 9.57,-30.051 54.67,-165.293 54.67,-188.496 0,-31.426 -58.75,-25.977 -58.75,-69.68 0,-43.711 51.88,-43.711 83.31,-43.711 h 230.86 c 32.79,0 69.68,6.832 69.68,46.457 0,20.477 -9.57,30.028 -25.98,39.61 -23.22,13.652 -30.05,17.754 -40.96,43.699 l -47.82,142.07 -280.04,655.676 c -28.68,66.94 -45.08,83.32 -121.54,83.32 -50.57,0 -75.15,-2.73 -99.73,-47.81 -38.25,-69.66 -71.03,-137.967 -101.08,-206.252 -69.67,-158.469 -140.7,-310.09 -192.61,-472.637 l -49.17,-152.988 c -9.57,-24.602 -19.13,-30.059 -40.99,-43.731 -15.02,-10.929 -28.69,-21.847 -28.69,-40.957 0,-53.285 61.48,-46.457 98.35,-46.457 z m 124.3,435.754 153,363.348 146.15,-341.492 6.82,-21.856 h -305.97" /><path
         id="path20"
         style="fill:#154281;fill-opacity:1;fill-rule:nonzero;stroke:none"
         d="m 3374.9,1047.61 c 23.23,56 28.68,71.03 90.16,71.03 h 254.09 c 25.92,0 46.44,-17.75 46.44,-49.18 0,-34.13 -27.34,-42.33 -53.27,-50.53 -36.89,-10.93 -39.63,-31.43 -39.63,-66.938 V 292.215 c 0,-28.68 -5.46,-60.086 24.6,-75.117 l 15.03,-8.203 c 17.73,-10.918 32.75,-19.122 32.75,-43.7 0,-36.906 -36.87,-46.457 -66.93,-46.457 h -259.53 c -30.05,0 -66.94,9.551 -66.94,46.457 0,24.578 15.03,32.782 32.81,43.7 l 15.03,8.203 c 30.05,15.031 24.6,46.437 24.6,75.117 V 885.059 L 3202.78,335.938 c -24.56,-57.375 -30.05,-86.055 -99.69,-86.055 -60.11,0 -77.88,4.101 -102.44,57.363 L 2760.2,870.035 V 289.492 c 1.38,-16.387 4.08,-32.785 8.2,-45.09 9.53,-24.578 30.05,-30.047 51.91,-38.25 23.23,-9.55 34.14,-19.101 34.14,-45.058 0,-46.453 -61.49,-42.356 -92.87,-42.356 h -118.84 c -31.43,0 -92.91,-4.097 -92.91,42.356 0,25.957 10.95,35.508 34.13,45.058 21.89,8.203 42.37,13.672 51.95,38.25 4.08,12.305 6.83,28.703 8.16,45.09 v 655.672 c 0,5.453 0,17.754 -4.08,28.684 -5.45,23.226 -20.48,40.982 -53.28,50.552 -25.93,8.18 -51.91,15.03 -51.91,47.81 0,45.08 42.33,46.43 77.88,46.43 h 266.36 c 65.56,0 72.39,-42.33 92.87,-96.98 l 191.29,-490.39 211.7,516.34" /><path
         id="path22"
         style="fill:#154281;fill-opacity:1;fill-rule:nonzero;stroke:none"
         d="m 3792.31,929.746 c 0,14.871 -1.96,16.031 12.71,16.031 9.26,0 24.53,0 24.53,-12.949 0,-14.48 -25.86,-19.109 -37.24,-20.832 z m 19.85,-24.516 c 5.81,-5.792 16.8,-21.031 16.8,-29.527 0,-3.473 -6.16,-1.547 -6.16,-6.769 0,-4.805 4.43,-4.629 7.89,-4.629 h 13.34 c 3.48,0 7.88,-0.176 7.88,4.629 0,2.707 -1.73,3.296 -3.85,4.648 -4.03,2.121 -3.84,4.043 -5.56,8.301 -4.28,11.574 -8.91,17.949 -16.65,27.402 9.66,4.629 18.57,12.93 18.57,24.133 0,6.57 -3.85,13.125 -9.06,16.793 -5.81,4.434 -12.95,5.019 -20.09,5.019 h -36.1 c -3.69,0 -8.32,0.571 -8.32,-5.019 0,-3.102 2.32,-3.867 4.83,-4.832 0.78,-0.195 1.92,-0.195 2.12,-1.156 0.39,-1.743 0.19,-8.688 0.19,-10.61 v -47.886 c 0,-1.157 0,-9.434 -0.19,-10.789 -0.55,-0.782 -2.12,-0.977 -2.67,-1.18 -2.31,-0.567 -4.28,-1.723 -4.28,-4.434 0,-5.41 4.44,-5.019 8.32,-5.019 h 13.5 c 3.29,0 7.92,0 7.92,4.629 0,3.668 -2.31,4.453 -5.21,5.222 -4.05,0.961 -2.91,2.703 -2.91,6.571 v 20.461 z m -76.42,3.86 c 0,-40.527 33,-73.543 73.52,-73.543 40.73,0 73.76,33.016 73.76,73.543 0,40.547 -33.03,73.547 -73.76,73.547 -40.52,0 -73.52,-33 -73.52,-73.547 z m 8.86,0 c 0,35.703 29.15,64.68 64.66,64.68 35.71,0 64.86,-28.977 64.86,-64.68 0,-35.703 -29.15,-64.656 -64.86,-64.656 -35.51,0 -64.66,28.953 -64.66,64.656" /><path
         id="path24"
         style="fill:#154281;fill-opacity:1;fill-rule:nonzero;stroke:none"
         d="m 3397.77,10.1914 h 22.09 c 7.6,0 11.99,4.1094 11.99,11.2891 0,7.0078 -4.39,11 -11.99,11 h -22.09 z m 0,31.2774 h 20.39 c 6,0 10.5,3.5 10.5,9.9023 0,7.1875 -3.7,9.7891 -10.5,9.7891 h -20.39 z m -12.49,29.8906 h 34.68 c 12.79,0 21.19,-5.7891 21.19,-17.6875 0,-7.2031 -3.7,-12.3906 -10.2,-15.1914 v -0.1992 c 8.69,-1.9024 13.39,-8.7032 13.39,-18.3907 C 3444.34,8.69141 3436.55,0 3418.06,0 h -32.78 v 71.3594" /><path
         id="path26"
         style="fill:#154281;fill-opacity:1;fill-rule:nonzero;stroke:none"
         d="m 3468.17,38.8789 h 20.49 c 7.9,0 12.19,3.8906 12.19,11.3906 0,9.0899 -5.89,10.8907 -12.39,10.8907 h -20.29 z m -12.49,32.4805 h 34.08 c 15.59,0 23.58,-7.1992 23.58,-19.2891 0,-13.6914 -9.49,-17.1914 -11.79,-17.9883 v -0.2031 c 4.29,-0.5976 10.59,-3.7891 10.59,-15.0898 0,-8.2891 1.2,-15.89066 3.9,-18.7891 h -13.39 c -1.89,3.10156 -1.89,6.98828 -1.89,10.5 0,13.0781 -2.71,18.8789 -14.2,18.8789 h -18.39 V 0 h -12.49 v 71.3594" /><path
         id="path28"
         style="fill:#154281;fill-opacity:1;fill-rule:nonzero;stroke:none"
         d="m 3540.77,28.3906 h 21.78 l -10.69,30.6797 h -0.29 z m 4.4,42.9688 h 13.29 L 3585.94,0 h -13.39 l -6.7,18.8906 h -28.48 L 3530.68,0 h -12.9 l 27.39,71.3594" /><path
         id="path30"
         style="fill:#154281;fill-opacity:1;fill-rule:nonzero;stroke:none"
         d="m 3592.28,71.3594 h 13.19 l 32.58,-52.5703 h 0.2 v 52.5703 h 11.89 V 0 h -13.19 l -32.48,52.4688 h -0.3 V 0 h -11.89 v 71.3594" /><path
         id="path32"
         style="fill:#154281;fill-opacity:1;fill-rule:nonzero;stroke:none"
         d="m 3677.47,10.1914 h 12.29 c 19.59,0 23.79,11.1992 23.79,25.4883 0,14.2891 -4.2,25.4805 -23.79,25.4805 h -12.29 z m -12.49,61.168 h 29.58 c 21.99,0 31.48,-15.9883 31.48,-35.6797 C 3726.04,15.9883 3716.55,0 3694.56,0 h -29.58 v 71.3594" /></g></g></svg>